# xmcd
#
# Track frame offsets: 
#        150
#        31267
#        52389
#        76226
#        98012
#        143786
#
# Disc length: 2228 seconds
#
# Revision: 2
# Processed by: cddbd v1.5.2PL0 Copyright (c) Steve Scherf et al.
# Submitted via: ExactAudioCopy v1.0b3
#
DISCID=4808b206
DTITLE=Herbie Mann - Muscle Shoals Nitty Gritty
DYEAR=1970
DGENRE=Jazz
TTITLE0=Muscle Shoals Nitty Gritty
TTITLE1=Claudia Pie
TTITLE2=Can You Dig It
TTITLE3=Blind Willy
TTITLE4=Come Together
TTITLE5=Panana Red's Panama Hat
EXTD=Recorded in Muscle Shoals Alabama in 1970
EXTT0=
EXTT1=
EXTT2=
EXTT3=
EXTT4=
EXTT5=
PLAYORDER=
